<svg width="196" height="196" viewBox="0 0 196 196" fill="none" xmlns="http://www.w3.org/2000/svg">
<g id="marker">
<g id="nasa-tlx-marker-g">
<path id="Union" d="M14.6973 4.40332C17.1564 1.94449 21.0961 1.86782 23.6475 4.17285L23.8896 4.40332L97.8994 78.4131L171.281 5.03125C173.74 2.57241 177.679 2.49567 180.23 4.80078L180.474 5.03125L190.373 14.9307C192.832 17.3898 192.909 21.3293 190.604 23.8809L190.373 24.123L116.991 97.5049L190.768 171.281C193.226 173.74 193.303 177.679 190.998 180.23L190.767 180.474L180.868 190.373C178.33 192.911 174.213 192.911 171.675 190.373H171.676L97.8994 116.597L23.4961 191C21.037 193.459 17.0975 193.536 14.5459 191.23L14.3037 191L4.40332 181.101C1.94476 178.642 1.86795 174.703 4.17285 172.151L4.40332 171.908L77.04 99.2725L78.8076 97.5049L4.79785 23.4951C2.33916 21.0361 2.26231 17.0974 4.56738 14.5459L4.79785 14.3027L14.6973 4.40332Z" fill="#4648EB" stroke="#060869" stroke-width="5"/>
</g>
</g>
</svg>
