<svg width="148" height="148" viewBox="0 0 148 148" fill="none" xmlns="http://www.w3.org/2000/svg">
<g id="marker">
<g id="nasa-tlx-marker-g">
<g id="marker-frame">
<g id="marker-text">
<mask id="path-1-outside-1_607_2320" maskUnits="userSpaceOnUse" x="7" y="8" width="135" height="133" fill="black">
<rect fill="white" x="7" y="8" width="135" height="133"/>
<path d="M106.463 17H121.463L81.7129 72.75L123.963 132H108.963L74.4629 83L39.9629 132H24.9629L67.2129 72.75L27.4629 17H42.4629L74.4629 62.5L106.463 17Z"/>
</mask>
<path d="M106.463 17H121.463L81.7129 72.75L123.963 132H108.963L74.4629 83L39.9629 132H24.9629L67.2129 72.75L27.4629 17H42.4629L74.4629 62.5L106.463 17Z" fill="#FD0000"/>
<path d="M106.463 17V8H101.79L99.1012 11.8226L106.463 17ZM121.463 17L128.791 22.2249L138.933 8H121.463V17ZM81.7129 72.75L74.3849 67.5251L70.6593 72.7503L74.3851 77.9753L81.7129 72.75ZM123.963 132V141H141.434L131.291 126.775L123.963 132ZM108.963 132L101.604 137.181L104.293 141H108.963V132ZM74.4629 83L81.8218 77.8187L74.4629 67.3669L67.1039 77.8187L74.4629 83ZM39.9629 132V141H44.6332L47.3218 137.181L39.9629 132ZM24.9629 132L17.6351 126.775L7.49134 141H24.9629V132ZM67.2129 72.75L74.5407 77.9753L78.2665 72.7503L74.5409 67.5251L67.2129 72.75ZM27.4629 17V8H9.99242L20.1349 22.2249L27.4629 17ZM42.4629 17L49.8246 11.8226L47.1362 8H42.4629V17ZM74.4629 62.5L67.1012 67.6774L74.4629 78.1448L81.8246 67.6774L74.4629 62.5ZM106.463 17V26H121.463V17V8H106.463V17ZM121.463 17L114.135 11.7751L74.3849 67.5251L81.7129 72.75L89.0409 77.9749L128.791 22.2249L121.463 17ZM81.7129 72.75L74.3851 77.9753L116.635 137.225L123.963 132L131.291 126.775L89.0407 67.5247L81.7129 72.75ZM123.963 132V123H108.963V132V141H123.963V132ZM108.963 132L116.322 126.819L81.8218 77.8187L74.4629 83L67.1039 88.1813L101.604 137.181L108.963 132ZM74.4629 83L67.1039 77.8187L32.6039 126.819L39.9629 132L47.3218 137.181L81.8218 88.1813L74.4629 83ZM39.9629 132V123H24.9629V132V141H39.9629V132ZM24.9629 132L32.2907 137.225L74.5407 77.9753L67.2129 72.75L59.8851 67.5247L17.6351 126.775L24.9629 132ZM67.2129 72.75L74.5409 67.5251L34.7909 11.7751L27.4629 17L20.1349 22.2249L59.8849 77.9749L67.2129 72.75ZM27.4629 17V26H42.4629V17V8H27.4629V17ZM42.4629 17L35.1012 22.1774L67.1012 67.6774L74.4629 62.5L81.8246 57.3226L49.8246 11.8226L42.4629 17ZM74.4629 62.5L81.8246 67.6774L113.825 22.1774L106.463 17L99.1012 11.8226L67.1012 57.3226L74.4629 62.5Z" fill="black" mask="url(#path-1-outside-1_607_2320)"/>
</g>
</g>
</g>
</g>
</svg>
